<svg aria-hidden="true" style="position: absolute; width: 0; height: 0; overflow: hidden;" version="1.1" xmlns="http://www.w3.org/2000/svg" xmlns:xlink="http://www.w3.org/1999/xlink">
<defs>
<symbol id="icon-arrow15" viewBox="0 0 28 32">
<path d="M24.023 1.613c-0.136-0.918-0.918-1.614-1.863-1.614-0.095 0-0.189 0.007-0.28 0.021l0.010-0.001-16.766 2.428c-0.918 0.136-1.614 0.919-1.614 1.864 0 1.040 0.843 1.883 1.883 1.883 0.095 0 0.188-0.007 0.279-0.021l-0.010 0.001 14.904-2.159 2.157 14.903c0.136 0.918 0.919 1.614 1.864 1.614 1.040 0 1.883-0.843 1.883-1.883 0-0.095-0.007-0.188-0.021-0.279l0.001 0.010-2.428-16.766zM3.392 30.153l20.273-27.142-3.014-2.257-20.277 27.145 3.014 2.255z"></path>
</symbol>
<symbol id="icon-arrow14" viewBox="0 0 30 32">
<path d="M3.2 29.5c0.121 0.999 0.964 1.766 1.986 1.766 0.083 0 0.165-0.005 0.245-0.015l-0.010 0.001 17.876-2.114c1.010-0.11 1.789-0.959 1.789-1.989 0-1.105-0.895-2-2-2-0.091 0-0.181 0.006-0.269 0.018l0.010-0.001-15.89 1.88-1.878-15.892c-0.11-1.010-0.959-1.789-1.989-1.789-1.105 0-2 0.895-2 2 0 0.091 0.006 0.181 0.018 0.269l-0.001-0.010 2.114 17.876zM25.126 0.752l-21.51 27.274 3.14 2.478 21.512-27.274-3.142-2.478z"></path>
</symbol>
<symbol id="icon-profile" viewBox="0 0 32 32">
<path d="M29.297 26.25c-1.729-2.996-4.349-5.311-7.494-6.616l-0.102-0.038c2.317-1.752 3.8-4.502 3.8-7.6 0-5.247-4.253-9.5-9.5-9.5s-9.5 4.253-9.5 9.5c0 3.097 1.482 5.848 3.776 7.582l0.024 0.017c-3.248 1.342-5.868 3.657-7.558 6.578l-0.040 0.074c-0.147 0.228-0.234 0.506-0.234 0.804 0 0.829 0.672 1.501 1.501 1.501 0.574 0 1.073-0.322 1.325-0.796l0.004-0.008c2.265-3.915 6.265-6.25 10.701-6.25s8.436 2.337 10.701 6.25c0.269 0.43 0.739 0.712 1.276 0.712 0.828 0 1.5-0.671 1.5-1.5 0-0.261-0.067-0.506-0.184-0.719l0.004 0.008zM9.501 12c0-0 0-0.001 0-0.001 0-3.59 2.911-6.501 6.501-6.501s6.501 2.911 6.501 6.501c0 3.59-2.911 6.501-6.501 6.501v0c-3.589-0.003-6.497-2.912-6.501-6.5v-0z"></path>
</symbol>
<symbol id="icon-settings" viewBox="0 0 30 32">
<path fill="none" stroke-linejoin="round" stroke-linecap="round" stroke-miterlimit="4" stroke-width="2.4471" d="M25.097 27.294v-2.509c0-2.773-2.248-5.020-5.020-5.020v0h-10.039c-2.773 0-5.020 2.248-5.020 5.020v0 2.509M15.059 14.744c0.029 0.001 0.063 0.001 0.097 0.001 2.773 0 5.020-2.248 5.020-5.020s-2.248-5.020-5.020-5.020c-0.034 0-0.068 0-0.102 0.001l0.005-0c-2.73 0.055-4.923 2.281-4.923 5.019s2.193 4.965 4.918 5.019l0.005 0z"></path>
</symbol>
<symbol id="icon-logo" viewBox="0 0 51 32">
<path fill="#0EF387" d="M34.955 22.362c-0.1-0.264-8.838-17.653-8.969-17.916-0.49-1.16-1.309-2.102-2.341-2.73l-0.026-0.014c-0.82-0.487-1.807-0.774-2.861-0.774-2.097 0-3.928 1.137-4.91 2.829l-0.015 0.027c-0.494 0.83-0.786 1.831-0.786 2.9 0 1.091 0.304 2.111 0.833 2.979l-0.014-0.025c0.1 0.23 8.444 16.892 8.608 17.156 0.1 0.264 0.23 0.497 0.361 0.76 0.459 1.126 1.28 2.084 2.366 2.744 0.823 0.494 1.817 0.786 2.879 0.786 2.087 0 3.91-1.129 4.892-2.81l0.014-0.027c0.501-0.834 0.797-1.84 0.797-2.915 0-1.097-0.309-2.123-0.844-2.994l0.014 0.025z"></path>
<path d="M24.87 10.594c0.952-1.024 1.544-2.413 1.544-3.934 0-3.14-2.53-5.719-5.685-5.719-0.006-0-0.013-0-0.020-0-1.92 0-3.615 0.961-4.631 2.428l-0.012 0.019c-0.198 0.198-14.357 17.786-14.522 18.018-0.956 1.027-1.544 2.41-1.544 3.929 0 0.002 0 0.003 0 0.005v-0c0 0.004-0 0.010-0 0.015 0 3.143 2.543 5.693 5.684 5.704h0.001c0.006 0 0.014 0 0.021 0 1.92 0 3.615-0.961 4.631-2.428l0.012-0.019c0.196-0.232 14.389-17.786 14.52-18.018zM49.28 10.594c0.952-1.024 1.544-2.413 1.544-3.934 0-0.004 0-0.010 0-0.015 0-3.143-2.543-5.693-5.684-5.704h-0.001c-0.006-0-0.014-0-0.021-0-1.92 0-3.615 0.961-4.631 2.428l-0.012 0.019c-0.196 0.198-14.389 17.786-14.552 18.018-0.956 1.027-1.544 2.41-1.544 3.929 0 0.002 0 0.003 0 0.005v-0c0 0.004-0 0.010-0 0.015 0 3.143 2.542 5.692 5.682 5.704h0.001c0.006 0 0.014 0 0.021 0 1.92 0 3.615-0.961 4.631-2.428l0.012-0.019c0.23-0.232 14.389-17.786 14.554-18.018z"></path>
</symbol>
<symbol id="icon-error" viewBox="0 0 32 32">
<path stroke='none' d="M0 16c0-8.837 7.163-16 16-16s16 7.163 16 16-7.163 16-16 16-16-7.163-16-16zM10.938 13.006l2.944 2.938-2.944 2.992c-0.581 0.589-0.581 1.539 0 2.070 0.587 0.637 1.536 0.637 2.069 0l2.938-2.888 2.992 2.888c0.589 0.637 1.539 0.637 2.070 0 0.637-0.531 0.637-1.482 0-2.069l-2.888-2.994 2.888-2.938c0.637-0.531 0.637-1.482 0-2.069-0.531-0.581-1.482-0.581-2.069 0l-2.994 2.944-2.938-2.944c-0.531-0.581-1.482-0.581-2.069 0-0.581 0.587-0.581 1.536 0 2.069z"></path>
</symbol>
<symbol id="icon-correct" viewBox="0 0 32 32">
<path d="M0 16c0-8.837 7.163-16 16-16s16 7.163 16 16-7.163 16-16 16-16-7.163-16-16zM23.237 13.237c0.315-0.317 0.51-0.754 0.51-1.237s-0.195-0.92-0.511-1.237l0 0c-0.317-0.315-0.754-0.51-1.237-0.51s-0.92 0.195-1.237 0.511l-6.763 6.762-2.763-2.762c-0.317-0.315-0.754-0.51-1.237-0.51s-0.92 0.195-1.237 0.511l0-0c-0.315 0.317-0.51 0.754-0.51 1.237s0.195 0.92 0.511 1.237l4 4c0.317 0.315 0.754 0.51 1.237 0.51s0.92-0.195 1.237-0.511l8-8z"></path>
</symbol>
<symbol id="icon-eyeOff" viewBox="0 0 32 32">
<path fill="none" style="transition: stroke 1s ease-in;" stroke-linejoin="round" stroke-linecap="round" stroke-miterlimit="4" stroke-width="2.4" d="M23.92 23.92c-2.175 1.672-4.923 2.696-7.908 2.747l-0.012 0c-9.333 0-14.667-10.667-14.667-10.667 1.713-3.152 3.978-5.791 6.689-7.877l0.058-0.043M13.2 5.653c0.833-0.203 1.788-0.32 2.771-0.32 0.010 0 0.020 0 0.030 0h-0.002c9.333 0 14.667 10.667 14.667 10.667-0.872 1.615-1.827 3.008-2.91 4.289l0.030-0.036M18.827 18.827c-0.731 0.774-1.764 1.256-2.91 1.256-2.209 0-4-1.791-4-4 0-1.146 0.482-2.179 1.254-2.909l0.002-0.002M1.333 1.333l29.334 29.334"></path>
</symbol>
<symbol id="icon-eye" viewBox="0 0 32 32">
<path fill="none" stroke-linejoin="round" stroke-linecap="round" stroke-miterlimit="4" stroke-width="2.4" d="M1.333 16s5.334-10.667 14.667-10.667 14.667 10.667 14.667 10.667-5.334 10.667-14.667 10.667-14.667-10.667-14.667-10.667z"></path>
<path fill="none" stroke-linejoin="round" stroke-linecap="round" stroke-miterlimit="4" stroke-width="2.4" d="M16 20c2.209 0 4-1.791 4-4s-1.791-4-4-4v0c-2.209 0-4 1.791-4 4s1.791 4 4 4v0z"></path>
</symbol>
</defs>
</svg>
